<?xml version="1.0" encoding="utf-8"?>
<!-- Generator: Adobe Illustrator 26.0.1, SVG Export Plug-In . SVG Version: 6.00 Build 0)  -->
<svg version="1.1" id="Layer_1" xmlns="http://www.w3.org/2000/svg" xmlns:xlink="http://www.w3.org/1999/xlink" x="0px" y="0px"
	 viewBox="0 0 500 466" style="enable-background:new 0 0 500 466;" xml:space="preserve">
<style type="text/css">
	.st0{fill:#15161A;}
	.st1{fill:#028E77;}
	.st2{fill:#91FF9C;}
	.st3{fill:#166CF7;}
	.st4{fill:#07D6AF;}
	.st5{fill:#20B0B8;}
	.st6{fill:#606060;}
	.st7{fill:#EF487C;}
	.st8{fill:#231F20;}
	.st9{fill:none;stroke:#91FF9C;stroke-width:10;stroke-miterlimit:10;}
	.st10{fill:none;stroke:#91FF9C;stroke-width:8.5161;stroke-miterlimit:10;}
	.st11{fill:#FFFFFF;}
	.st12{fill:none;stroke:#20B0B8;stroke-width:3;stroke-miterlimit:10;}
	.st13{fill:none;stroke:#20B0B8;stroke-width:2.4706;stroke-linecap:round;stroke-linejoin:round;stroke-miterlimit:10;}
	.st14{fill:none;stroke:#028E77;stroke-width:3;stroke-miterlimit:10;}
	.st15{fill:none;stroke:#028E77;stroke-width:2.4706;stroke-linecap:round;stroke-linejoin:round;stroke-miterlimit:10;}
	.st16{fill:none;stroke:#20B0B8;stroke-width:2;stroke-linecap:round;stroke-linejoin:round;stroke-miterlimit:10;}
	.st17{fill:#91FF9C;stroke:#20B0B8;stroke-width:3;stroke-miterlimit:10;}
	.st18{fill:none;stroke:#91FF9C;stroke-width:3;stroke-linecap:round;stroke-miterlimit:10;}
	.st19{fill:#028E77;stroke:#15161A;stroke-width:10;stroke-linejoin:round;stroke-miterlimit:10;}
	.st20{fill:#20B0B8;stroke:#15161A;stroke-width:10;stroke-linejoin:round;stroke-miterlimit:10;}
	.st21{fill:#166CF7;stroke:#15161A;stroke-width:10;stroke-linejoin:round;stroke-miterlimit:10;}
	.st22{fill:#07D6AF;stroke:#15161A;stroke-width:10;stroke-linejoin:round;stroke-miterlimit:10;}
	.st23{fill:none;stroke:#15161A;stroke-width:10;stroke-linejoin:round;stroke-miterlimit:10;}
	.st24{fill:#15161A;stroke:#FFFFFF;stroke-width:3;stroke-miterlimit:10;}
	.st25{fill:#91FF9C;stroke:#028E77;stroke-width:3;stroke-miterlimit:10;}
	.st26{fill:none;stroke:#91FF9C;stroke-width:9;stroke-linecap:round;stroke-miterlimit:10;stroke-dasharray:2,15;}
	.st27{fill:#91FF9C;stroke:#231F20;stroke-width:3;stroke-miterlimit:10;}
	.st28{fill:#028E77;stroke:#FFFFFF;stroke-width:3;stroke-miterlimit:10;}
	.st29{opacity:0.26;fill:#5A563A;stroke:#5A563A;stroke-linejoin:round;stroke-miterlimit:10;}
	.st30{opacity:0.26;fill:#FFFFFF;stroke:#FFFFFF;stroke-linejoin:round;stroke-miterlimit:10;}
	.st31{fill:none;stroke:#028E77;stroke-width:3;stroke-linecap:round;stroke-miterlimit:10;}
	.st32{opacity:0.25;}
	.st33{opacity:0.25;fill:#028E77;}
	.st34{fill:#91FF9C;stroke:#231F20;stroke-width:6.5379;stroke-miterlimit:10;}
	.st35{fill:#7954A3;stroke:#221F1F;stroke-width:6.5379;stroke-linecap:round;stroke-miterlimit:10;}
	.st36{fill:#7954A3;}
	.st37{fill:#C6D86A;stroke:#221F1F;stroke-width:6.5379;stroke-linecap:round;stroke-miterlimit:10;}
	.st38{fill:#221F1F;}
	.st39{fill:#20B0B8;stroke:#221F1F;stroke-width:6.5379;stroke-miterlimit:10;}
	.st40{fill:#166CF7;stroke:#221F1F;stroke-width:6.5379;stroke-miterlimit:10;}
	.st41{fill:#166CF7;stroke:#221F1F;stroke-width:6.5379;stroke-linejoin:bevel;stroke-miterlimit:10;}
	.st42{fill:#D7DF23;stroke:#221F1F;stroke-width:6.5379;stroke-linecap:round;stroke-miterlimit:10;}
	.st43{fill:#166CF7;stroke:#231F20;stroke-width:6.5379;stroke-miterlimit:10;}
	.st44{fill:#EDECC2;stroke:#231F20;stroke-width:6.478;stroke-miterlimit:10;}
	.st45{fill:#028E77;stroke:#221F1F;stroke-width:6.5379;stroke-miterlimit:10;}
	.st46{fill:#EDECC2;stroke:#221F1F;stroke-width:6.538;stroke-linejoin:bevel;stroke-miterlimit:10;}
	.st47{fill:#231F20;stroke:#231F20;stroke-width:0.5483;stroke-miterlimit:10;}
</style>
<g>
	<g>
		<path class="st4" d="M67.4,39.5L8,293.3h379.8l59.4-253.8H67.4z M130.9,215.6L158.4,98l34.5,117.6H130.9z M305.4,215.6h-62
			L332.9,98L305.4,215.6z"/>
		<g>
			<path class="st7" d="M295.8,449.5h-62l27.5-117.6h62L295.8,449.5z"/>
			<polygon class="st4" points="323.3,331.9 295.8,449.5 233.8,449.5 261.3,331.9 			"/>
			<path class="st7" d="M194.5,449.5h-62L160,331.9h62L194.5,449.5z"/>
			<polygon class="st4" points="222,331.9 194.5,449.5 132.5,449.5 160,331.9 			"/>
			<path class="st7" d="M93.3,449.5h-62l27.5-117.6h62L93.3,449.5z"/>
			<polygon class="st4" points="120.8,331.9 93.3,449.5 31.3,449.5 58.8,331.9 			"/>
		</g>
	</g>
	<g>
		<path class="st11" d="M193.7,82.1l-27,115.5h60.9L193.7,82.1z M195,129.8l16.3,55.6H182L195,129.8z M277.1,197.6H338l27-115.5
			L277.1,197.6z M328.4,185.5h-26.7l38.6-50.7L328.4,185.5z M277.1,197.6H338l27-115.5L277.1,197.6z M328.4,185.5h-26.7l38.6-50.7
			L328.4,185.5z M193.7,82.1l-27,115.5h60.9L193.7,82.1z M195,129.8l16.3,55.6H182L195,129.8z M193.7,82.1l-27,115.5h60.9
			L193.7,82.1z M195,129.8l16.3,55.6H182L195,129.8z M277.1,197.6H338l27-115.5L277.1,197.6z M328.4,185.5h-26.7l38.6-50.7
			L328.4,185.5z M277.1,197.6H338l27-115.5L277.1,197.6z M328.4,185.5h-26.7l38.6-50.7L328.4,185.5z M166.7,197.6h60.9L193.7,82.1
			L166.7,197.6z M211.3,185.5H182l13-55.6L211.3,185.5z M94.7,12.5L30.7,286h397.9l64-273.5H94.7z M419,273.9h-373l58.3-249.2h373
			L419,273.9z M338,197.6l27-115.5l-87.9,115.5H338z M328.4,185.5h-26.7l38.6-50.7L328.4,185.5z M166.7,197.6h60.9L193.7,82.1
			L166.7,197.6z M211.3,185.5H182l13-55.6L211.3,185.5z M193.7,82.1l-27,115.5h60.9L193.7,82.1z M195,129.8l16.3,55.6H182L195,129.8
			z M277.1,197.6H338l27-115.5L277.1,197.6z M328.4,185.5h-26.7l38.6-50.7L328.4,185.5z M277.1,197.6H338l27-115.5L277.1,197.6z
			 M328.4,185.5h-26.7l38.6-50.7L328.4,185.5z M193.7,82.1l-27,115.5h60.9L193.7,82.1z M195,129.8l16.3,55.6H182L195,129.8z"/>
		<g>
			<path class="st11" d="M285.1,299.6l-32.7,139.8h85.9L371,299.6H285.1z M328.6,427.3h-60.9l27-115.5h60.9L328.6,427.3z"/>
			<path class="st11" d="M185.7,299.6L153,439.4h85.9l32.7-139.8H185.7z M229.2,427.3h-60.9l27-115.5h60.9L229.2,427.3z"/>
			<path class="st11" d="M86.3,299.6L53.6,439.4h85.9l32.7-139.8H86.3z M129.8,427.3H68.9l27-115.5h60.9L129.8,427.3z"/>
		</g>
	</g>
</g>
</svg>
